<?xml version="1.0" standalone="no"?>
<!DOCTYPE svg PUBLIC "-//W3C//DTD SVG 20010904//EN"
 "http://www.w3.org/TR/2001/REC-SVG-20010904/DTD/svg10.dtd">
<svg version="1.0" xmlns="http://www.w3.org/2000/svg"
 width="340.000000pt" height="292.000000pt" viewBox="0 0 340.000000 292.000000"
 preserveAspectRatio="xMidYMid meet">

<g transform="translate(0.000000,292.000000) scale(0.100000,-0.100000)"
fill="#000000" stroke="none">
<path d="M0 1460 l0 -1460 215 0 c165 0 215 3 215 13 0 8 3 9 8 1 5 -7 115
-12 348 -13 l340 -2 12 26 c7 14 19 28 27 31 8 4 15 12 15 19 0 7 7 18 15 25
8 7 12 16 9 21 -3 5 -2 9 3 8 22 -4 43 2 38 11 -3 6 -1 10 4 10 18 0 26 -5 23
-12 -1 -5 20 -8 47 -8 27 0 62 -5 77 -10 36 -14 59 -5 85 32 18 25 19 32 8 39
-11 7 -9 9 8 9 14 0 29 13 43 35 24 38 20 55 -12 55 -12 0 -18 -3 -15 -7 8 -7
-11 -33 -25 -33 -5 0 -6 4 -3 10 3 6 -1 7 -9 4 -9 -3 -16 -2 -16 4 0 6 -9 8
-20 5 -11 -3 -17 -10 -13 -16 4 -6 -2 -8 -15 -5 -12 4 -47 0 -78 -9 -31 -8
-58 -12 -60 -10 -5 5 130 62 191 80 122 37 176 25 210 -46 16 -34 35 -119 38
-171 1 -16 9 -32 17 -34 8 -3 28 -18 43 -34 l29 -28 683 0 684 0 4 28 4 27 2
-27 1 -28 93 0 c59 0 99 5 110 12 16 12 17 38 15 283 l-3 270 -45 6 c-27 4
-60 1 -84 -6 l-38 -13 5 40 c6 48 27 73 90 104 38 20 47 21 47 9 0 -8 7 -15
15 -15 12 0 15 13 15 55 0 30 -4 55 -9 55 -8 0 -62 -40 -81 -60 -3 -3 -15 -14
-28 -24 -18 -15 -21 -16 -17 -4 5 13 -4 16 -52 21 -32 3 -96 10 -143 16 -47 6
-123 12 -170 13 -80 3 -85 4 -88 26 -2 13 3 25 12 28 13 5 12 10 -9 26 -18 14
-25 29 -25 54 0 28 4 35 27 40 24 7 25 8 8 20 -17 13 -17 14 0 20 11 5 22 1
30 -9 7 -10 17 -17 23 -17 6 0 14 -5 18 -11 4 -8 -1 -9 -17 -5 -24 7 -24 7 -4
-10 20 -16 19 -16 -7 -12 -16 3 -28 4 -28 2 0 -6 50 -53 67 -63 16 -9 15 -10
-6 -11 -19 0 -22 -4 -17 -24 4 -15 1 -26 -7 -29 -25 -11 71 -6 183 7 63 8 166
18 228 22 l112 7 -2 216 -3 216 -52 3 c-54 3 -62 9 -41 30 9 9 7 13 -5 18 -9
3 -17 12 -17 20 0 10 15 14 54 14 86 0 76 18 -14 26 -72 6 -94 14 -72 27 4 3
40 2 79 -2 l73 -7 0 593 0 593 -44 -6 c-42 -6 -46 -4 -91 40 -25 26 -43 51
-40 56 3 5 -11 18 -32 29 -33 16 -107 86 -108 101 -1 14 -32 50 -43 50 -8 0
-10 -8 -6 -27 4 -16 8 -30 10 -32 2 -2 -1 -10 -7 -18 -13 -15 -79 -18 -79 -3
0 6 -6 10 -13 10 -18 0 -77 -30 -77 -38 0 -4 16 -16 36 -27 28 -15 39 -17 54
-7 22 13 36 1 42 -38 3 -22 -1 -25 -27 -26 -16 -1 -43 -6 -58 -13 -38 -15 -35
-16 -54 29 -10 22 -21 40 -25 40 -7 0 -2 61 8 93 4 11 12 16 21 13 22 -9 63 4
63 20 0 8 7 14 16 14 13 0 49 21 83 47 11 8 -35 43 -56 43 -24 0 -29 -10 -14
-25 6 -6 3 -19 -8 -34 -18 -23 -20 -24 -49 -10 -30 15 -31 34 -2 34 8 0 16 8
18 18 3 16 -23 17 -431 17 -240 0 -442 -3 -451 -6 -26 -10 -19 -28 32 -81 26
-28 53 -57 60 -67 17 -21 29 -20 35 2 4 15 6 15 12 -3 3 -11 27 -35 52 -54
l46 -34 -7 29 c-6 27 -5 28 9 10 12 -16 18 -17 27 -8 7 7 21 12 32 12 31 0 96
-34 91 -48 -9 -25 7 -44 32 -38 29 8 69 -25 60 -48 -8 -21 3 -20 19 2 12 15
12 15 7 -7 -6 -22 -4 -23 25 -16 26 5 36 2 61 -24 17 -17 34 -31 38 -31 4 0
18 -11 31 -24 15 -17 33 -24 58 -24 37 0 94 -19 94 -32 0 -4 -17 -2 -38 5 -38
13 -92 10 -92 -6 0 -5 9 -9 20 -9 16 0 20 -7 20 -30 0 -16 5 -30 11 -30 6 0 8
-7 5 -16 -4 -11 1 -18 14 -21 11 -3 19 -13 18 -22 -3 -39 4 -51 38 -67 23 -11
32 -20 25 -27 -7 -7 -5 -20 6 -41 22 -42 32 -47 66 -30 16 9 31 13 34 10 8 -8
-7 -26 -21 -26 -17 0 -109 -49 -118 -63 -10 -16 9 -44 40 -61 15 -9 22 -15 16
-16 -41 -1 -1 -80 40 -80 19 -1 19 -2 -4 -15 -20 -11 -21 -14 -7 -15 17 0 17
-1 2 -16 -15 -15 -15 -18 4 -35 11 -11 28 -19 37 -19 10 0 14 -5 10 -15 -3 -9
0 -15 9 -15 8 0 15 -4 15 -10 0 -13 -37 -50 -50 -50 -5 0 -10 -4 -10 -10 0 -5
11 -10 24 -10 26 0 41 -31 23 -49 -8 -8 -1 -11 24 -12 31 -1 32 -2 9 -9 l-25
-8 25 -2 c18 -2 20 -4 8 -7 -23 -6 -24 -23 -2 -23 11 0 15 -6 11 -20 -4 -15 1
-22 20 -26 l24 -6 -23 -13 c-13 -6 -22 -17 -20 -23 1 -7 -5 -12 -14 -12 -8 0
-13 -4 -9 -9 3 -6 -11 -8 -35 -5 -22 3 -40 1 -40 -5 0 -13 26 -21 73 -22 39 0
40 -1 17 -11 l-25 -10 23 -9 c13 -5 33 -7 45 -4 32 7 61 -18 52 -45 -6 -20
-11 -21 -80 -15 -52 5 -75 4 -80 -5 -4 -7 -2 -16 5 -20 9 -6 7 -11 -10 -20
-18 -10 -20 -14 -9 -21 11 -7 10 -9 -3 -9 -12 0 -18 8 -18 21 0 11 -6 27 -14
34 -9 9 -12 33 -11 72 3 55 -11 123 -26 123 -14 0 -41 94 -45 153 -1 34 -5 77
-7 95 -2 17 0 32 3 32 15 0 8 78 -11 116 -11 23 -21 56 -22 73 -1 17 -6 31
-10 31 -5 0 -6 4 -3 9 4 5 2 11 -4 13 -6 2 -12 14 -15 27 -7 37 -33 59 -85 72
-44 11 -50 17 -66 56 -11 25 -23 42 -30 39 -19 -7 -89 15 -75 23 6 4 9 15 6
23 -5 12 -17 14 -51 10 l-44 -5 0 33 c0 18 -3 30 -7 27 -3 -4 -11 3 -17 15
-15 30 -46 37 -39 9 4 -15 1 -21 -11 -21 -10 0 -14 5 -11 10 3 6 0 10 -7 10
-10 0 -9 3 2 11 12 8 11 9 -6 4 -26 -7 -54 3 -54 19 0 17 -166 139 -181 134
-5 -2 10 -25 34 -52 42 -45 44 -50 31 -74 -7 -14 -19 -29 -26 -34 -10 -6 -10
-10 2 -18 13 -8 12 -10 -3 -10 -10 0 -25 7 -34 15 -8 8 -18 13 -23 10 -10 -6
-22 23 -15 35 7 12 -15 58 -31 64 -8 3 -14 0 -14 -5 0 -7 -11 -9 -25 -7 -18 4
-26 0 -32 -16 -4 -12 -6 -25 -5 -29 2 -5 -12 -6 -30 -2 -27 6 -31 5 -20 -6 36
-38 -8 -30 -50 9 -19 18 -26 33 -24 49 3 14 0 23 -8 23 -8 0 -19 7 -26 15 -11
13 -10 14 5 9 15 -6 16 -4 6 14 -14 26 -59 62 -78 62 -20 0 -27 -28 -14 -57
13 -29 8 -41 -11 -25 -19 15 -63 19 -61 6 1 -7 -6 -10 -16 -7 -15 4 -18 0 -16
-21 2 -13 5 -29 8 -33 3 -5 2 -15 -3 -23 -7 -12 -11 -12 -26 1 -10 8 -40 14
-70 14 -53 1 -72 -9 -36 -18 9 -3 1 -5 -18 -5 -19 0 -29 2 -22 5 23 9 12 21
-22 25 -19 2 -32 0 -30 -4 3 -4 -2 -8 -10 -8 -8 0 -18 5 -22 11 -4 7 -21 9
-43 5 -25 -4 -31 -2 -21 4 13 8 12 10 -3 10 -11 0 -31 -9 -47 -20 -15 -11 -29
-17 -32 -15 -3 3 -13 -4 -23 -16 -16 -16 -17 -22 -6 -28 8 -5 10 -14 6 -21 -6
-9 -9 -9 -15 0 -4 7 -15 -8 -29 -39 -11 -27 -26 -53 -31 -56 -6 -3 -10 -11
-10 -16 0 -23 41 15 79 73 23 35 41 59 41 53 0 -5 5 -4 12 3 13 13 60 16 71 5
4 -3 1 -13 -6 -21 -10 -13 -8 -14 13 -7 23 7 24 6 11 -9 -8 -10 -31 -26 -51
-36 -21 -11 -42 -31 -49 -48 -7 -15 -25 -36 -41 -46 -17 -9 -30 -21 -30 -27 0
-21 -2 -25 -21 -45 -10 -11 -16 -24 -12 -28 5 -4 3 -6 -2 -4 -6 2 -10 0 -10
-4 0 -12 -48 -58 -61 -58 -7 0 -15 -6 -17 -12 -4 -10 -6 -10 -6 0 -1 10 -7 10
-28 -1 -40 -20 -100 -30 -108 -17 -3 5 -1 10 5 10 7 0 3 14 -9 33 -23 38 -19
71 16 111 25 28 19 32 -22 16 -18 -7 -25 -15 -21 -25 3 -8 0 -17 -5 -21 -6 -3
-9 -17 -6 -30 2 -13 0 -24 -5 -24 -15 0 -21 31 -9 43 15 15 14 27 -4 27 -9 0
-20 -11 -25 -25 -18 -48 14 -131 74 -190 l20 -19 -25 -7 c-13 -4 -18 -7 -11
-8 19 -2 14 -22 -7 -28 -28 -7 -34 -31 -10 -38 22 -7 24 -16 8 -32 -7 -7 -7
-13 0 -17 5 -4 8 -13 4 -21 -3 -8 -1 -15 5 -15 6 0 13 6 15 13 3 6 6 3 7 -8 0
-11 7 -29 15 -39 11 -14 12 -23 4 -33 -9 -10 -8 -13 5 -13 22 0 20 -16 -4 -33
-23 -16 -16 -27 18 -27 24 0 24 -1 8 -25 -9 -14 -12 -25 -6 -25 5 0 10 -9 10
-20 0 -14 -10 -22 -32 -28 -36 -9 -37 -29 -2 -24 12 1 27 -4 34 -13 11 -13 9
-15 -13 -15 -52 0 -83 12 -104 43 -17 23 -19 33 -10 39 9 6 6 14 -11 28 -22
18 -52 18 -52 -1 0 -13 -48 -11 -56 3 -4 6 -2 14 4 16 7 2 12 10 12 18 0 9 5
12 10 9 6 -4 8 -10 5 -15 -3 -4 5 -5 17 -2 19 5 20 7 6 10 -10 2 -18 8 -18 13
0 5 -8 9 -18 9 -10 0 -23 5 -30 12 -7 7 -12 9 -12 5 0 -4 -10 1 -22 13 -55 51
-65 4 -11 -52 26 -26 32 -38 21 -38 -23 0 -68 57 -68 85 0 13 -6 25 -13 27 -9
2 -8 8 5 21 16 15 18 15 18 1 0 -10 7 -14 17 -12 10 2 17 10 15 17 -1 6 -3 24
-4 39 -1 15 -7 30 -13 35 -7 4 -6 10 3 16 8 4 13 19 11 32 -2 29 10 61 21 54
5 -3 15 1 23 9 8 8 17 13 20 10 3 -3 13 13 23 35 10 23 22 37 28 34 6 -4 2 4
-9 17 -11 13 -14 20 -7 16 8 -5 7 4 -4 28 -10 19 -22 32 -28 29 -6 -3 -5 0 2
8 15 17 16 51 0 67 -13 13 -3 16 34 13 21 -2 33 18 19 32 -7 7 -12 6 -17 -6
-3 -9 -10 -14 -15 -11 -15 9 -10 34 12 57 l21 22 -7 -24 c-7 -22 -5 -23 21
-17 53 13 74 34 74 71 0 25 -4 35 -16 35 -11 0 -14 5 -10 16 3 9 6 18 6 20 0
2 11 4 25 4 18 0 28 7 34 24 6 15 20 25 41 30 19 3 34 13 37 25 4 16 10 17 40
10 25 -5 47 -3 72 7 31 12 36 19 38 49 2 26 -1 35 -12 35 -15 0 -20 26 -9 54
16 42 56 1 47 -48 -7 -32 -3 -31 54 10 17 13 39 24 47 24 9 0 16 5 16 11 0 5
5 7 10 4 6 -3 22 3 36 14 20 15 22 21 10 21 -9 0 -16 4 -16 9 0 16 30 33 47
27 15 -6 15 -8 3 -16 -8 -6 -13 -10 -10 -10 3 -1 29 -3 58 -6 58 -6 57 -7 35
54 -7 17 12 15 27 -3 7 -8 18 -15 24 -15 29 0 67 -26 62 -42 -2 -9 1 -19 8
-21 8 -3 7 -9 -3 -21 -15 -18 -9 -32 8 -21 6 3 9 11 6 16 -4 5 1 12 9 15 9 3
16 12 16 20 0 16 14 18 38 5 11 -6 34 -5 61 2 l43 12 -6 100 c-4 55 -9 117
-12 138 l-6 38 -144 -2 c-135 -1 -144 -3 -144 -21 0 -15 -5 -18 -20 -13 -11 3
-20 2 -20 -3 0 -11 -50 -35 -58 -27 -3 3 -3 6 -1 8 2 1 17 10 34 19 34 19 44
38 21 38 -9 0 -16 -4 -16 -10 0 -5 -7 -10 -16 -10 -8 0 -12 5 -9 10 4 6 -22
10 -71 10 -69 0 -79 -2 -100 -26 -18 -19 -24 -37 -24 -70 0 -30 -4 -44 -12
-42 -16 6 -17 78 -1 93 19 19 16 25 -12 25 -14 0 -25 5 -25 10 0 6 -113 10
-318 10 l-318 0 -11 -30 c-6 -16 -16 -30 -22 -30 -6 0 -8 7 -5 15 4 8 1 15 -6
15 -7 0 -10 7 -6 15 4 13 -9 15 -85 15 -53 0 -88 -4 -84 -9 10 -18 -13 -21
-41 -6 -18 9 -57 15 -101 15 l-73 0 0 -1460z m2263 1426 c12 -19 3 -51 -17
-54 -14 -3 -17 0 -13 12 3 8 2 18 -4 22 -6 3 -8 12 -5 19 3 8 0 16 -7 19 -7 3
-1 3 13 0 14 -4 28 -12 33 -18z m187 -6 c0 -5 -4 -10 -10 -10 -5 0 -10 5 -10
10 0 6 5 10 10 10 6 0 10 -4 10 -10z m174 -11 c-3 -5 -12 -9 -20 -9 -8 0 -14
-5 -14 -11 0 -5 12 -9 28 -8 59 5 64 2 60 -38 -2 -33 0 -38 17 -37 11 1 28 5
38 9 13 5 17 2 17 -15 0 -20 2 -19 26 9 31 37 59 42 50 9 -3 -13 -6 -28 -6
-34 0 -6 -23 -11 -52 -12 -29 -1 -60 -3 -68 -4 -8 -1 -28 0 -43 0 -24 2 -26 4
-17 21 15 29 13 32 -17 25 -22 -6 -25 -4 -20 9 5 13 0 16 -27 15 -18 -1 -38 2
-44 6 -6 3 -17 0 -24 -7 -7 -8 -20 -12 -28 -10 -9 2 -30 -10 -47 -27 -32 -33
-58 -33 -48 0 7 22 -12 37 -28 21 -14 -14 -67 -15 -67 -1 0 6 14 10 30 10 22
0 33 6 41 24 7 14 23 26 38 29 34 7 53 -5 21 -13 -14 -3 -27 -15 -29 -25 -3
-19 -2 -19 15 -4 11 10 47 20 83 24 49 6 65 11 68 25 3 10 14 22 26 27 24 11
50 6 41 -8z m-474 -33 c-14 -14 -24 0 -16 21 6 15 8 15 16 3 6 -9 5 -19 0 -24z
m357 19 c0 -10 -6 -14 -14 -10 -8 3 -19 5 -24 5 -6 0 -7 5 -4 10 10 16 42 12
42 -5z m-2130 -37 c-3 -8 -6 -5 -6 6 -1 11 2 17 5 13 3 -3 4 -12 1 -19z m379
11 c3 -6 0 -18 -9 -26 -13 -14 -15 -13 -14 11 2 27 11 34 23 15z m649 -9 c21
-24 15 -35 -14 -25 -12 3 -21 15 -21 26 0 24 12 24 35 -1z m1445 16 c0 -11
-19 -15 -25 -6 -3 5 1 10 9 10 9 0 16 -2 16 -4z m-1840 -36 c0 -5 -4 -10 -10
-10 -5 0 -10 5 -10 10 0 6 5 10 10 10 6 0 10 -4 10 -10z m310 -78 c0 -13 -12
-22 -22 -16 -10 6 -1 24 13 24 5 0 9 -4 9 -8z m1750 -2 c0 -13 -28 -25 -38
-16 -3 4 0 11 8 16 20 13 30 12 30 0z m-2260 -9 c0 -14 -18 -23 -30 -16 -6 4
-8 11 -5 16 8 12 35 12 35 0z m-210 -32 c0 -5 -7 -9 -15 -9 -15 0 -20 12 -9
23 8 8 24 -1 24 -14z m187 -15 c-3 -3 -12 -4 -19 -1 -8 3 -5 6 6 6 11 1 17 -2
13 -5z m1793 -29 c0 -7 -7 -16 -16 -19 -8 -3 -13 -2 -9 3 3 5 0 11 -7 13 -7 3
-9 12 -5 22 6 15 10 16 22 6 8 -7 15 -18 15 -25z m-1345 6 c3 -5 1 -13 -5 -16
-15 -9 -43 3 -35 15 8 13 32 13 40 1z m-335 -19 c0 -10 5 -23 10 -28 7 -7 2
-18 -15 -34 -27 -26 -29 -25 -39 8 -6 18 -3 22 13 22 22 0 28 14 11 25 -12 7
-4 25 11 25 5 0 9 -8 9 -18z m-544 -29 c-10 -10 -19 5 -10 18 6 11 8 11 12 0
2 -7 1 -15 -2 -18z m241 -64 c-5 -4 -7 -14 -4 -23 8 -20 -3 -20 -29 -1 -19 14
-19 15 4 21 25 7 29 26 7 44 -20 16 -19 28 3 32 13 3 19 -5 23 -32 4 -20 2
-38 -4 -41z m218 51 c-27 -12 -35 -12 -35 0 0 6 12 10 28 9 24 0 25 -1 7 -9z
m198 -7 c-7 -2 -19 -2 -25 0 -7 3 -2 5 12 5 14 0 19 -2 13 -5z m1887 -3 c0 -5
-4 -10 -10 -10 -5 0 -10 5 -10 10 0 6 5 10 10 10 6 0 10 -4 10 -10z m-2185
-30 c-20 -22 -31 -20 -22 5 4 8 14 15 23 15 16 0 16 -2 -1 -20z m343 8 c-4
-12 -48 -20 -48 -8 0 12 13 20 33 20 10 0 17 -5 15 -12z m-268 -12 c0 -8 -4
-17 -9 -21 -12 -7 -24 12 -16 25 9 15 25 12 25 -4z m40 -1 c0 -8 -4 -15 -10
-15 -5 0 -7 7 -4 15 4 8 8 15 10 15 2 0 4 -7 4 -15z m105 -22 c-11 -3 -23 -10
-27 -16 -4 -6 -10 -8 -13 -5 -13 13 6 28 33 27 21 -1 23 -2 7 -6z m-217 -25
c1 -8 -9 -20 -23 -26 -33 -15 -32 -16 -30 9 3 36 46 50 53 17z m2612 13 c0 -6
-4 -13 -10 -16 -5 -3 -10 1 -10 9 0 9 5 16 10 16 6 0 10 -4 10 -9z m-2868 -17
c3 -3 1 -21 -5 -40 -11 -35 -47 -50 -47 -19 0 8 7 15 15 15 9 0 15 9 15 25 0
24 10 32 22 19z m356 -12 c18 -12 21 -84 3 -90 -10 -3 -12 0 -8 13 12 29 -3
36 -33 15 -18 -13 -31 -16 -35 -10 -3 5 -1 10 4 10 6 0 11 11 11 25 0 13 8 29
18 34 21 13 24 13 40 3z m-258 -7 c0 -12 -40 -48 -46 -42 -4 4 1 16 11 27 17
19 35 26 35 15z m70 -10 c0 -9 9 -15 21 -15 12 0 19 -5 16 -12 -2 -7 -16 -12
-31 -11 -14 1 -26 -1 -26 -5 0 -11 42 -36 63 -37 26 -2 51 -31 44 -49 -8 -20
-55 -39 -75 -31 -13 5 -12 8 4 21 18 14 17 15 -16 10 -26 -4 -31 -3 -20 4 13
9 12 13 -8 30 -23 19 -23 21 -8 51 12 24 13 35 5 45 -9 11 -7 14 10 14 12 0
21 -6 21 -15z m737 -41 c-3 -3 -12 -4 -19 -1 -8 3 -5 6 6 6 11 1 17 -2 13 -5z
m40 0 c-3 -3 -12 -4 -19 -1 -8 3 -5 6 6 6 11 1 17 -2 13 -5z m1893 -4 c0 -5
-4 -10 -10 -10 -5 0 -10 5 -10 10 0 6 5 10 10 10 6 0 10 -4 10 -10z m-2752
-52 c-22 -17 -23 -16 -26 9 -4 33 18 49 36 26 11 -15 9 -20 -10 -35z m236 -10
c9 -37 7 -45 -13 -51 -27 -7 -34 3 -13 19 16 12 16 13 -1 19 -14 6 -15 10 -6
21 16 20 26 17 33 -8z m556 -18 c0 -5 -5 -10 -11 -10 -5 0 -7 5 -4 10 3 6 8
10 11 10 2 0 4 -4 4 -10z m55 0 c3 -5 -3 -10 -14 -10 -12 0 -21 5 -21 10 0 6
6 10 14 10 8 0 18 -4 21 -10z m-955 -16 c0 -8 -4 -12 -10 -9 -5 3 -10 10 -10
16 0 5 5 9 10 9 6 0 10 -7 10 -16z m-51 -18 c8 -10 9 -16 1 -21 -13 -8 -30 3
-30 21 0 18 14 18 29 0z m172 -7 c11 -5 17 -14 14 -20 -4 -5 -1 -9 4 -9 6 0
11 -9 11 -20 0 -21 -12 -24 -45 -11 -18 7 -18 8 -1 18 22 12 13 33 -15 33 -10
0 -19 5 -19 10 0 13 26 13 51 -1z m2676 -84 c0 -8 -6 -15 -14 -15 -14 0 -17
12 -6 23 11 11 20 8 20 -8z m-2962 -35 c3 -5 1 -10 -4 -10 -6 0 -11 5 -11 10
0 6 2 10 4 10 3 0 8 -4 11 -10z m2671 -19 c-5 -8 -56 -3 -56 5 0 2 14 4 31 4
16 0 28 -4 25 -9z m298 -16 c-4 -8 -12 -15 -20 -15 -8 0 -14 7 -14 15 0 8 9
15 20 15 13 0 18 -5 14 -15z m91 5 c3 -5 2 -10 -4 -10 -5 0 -13 5 -16 10 -3 6
-2 10 4 10 5 0 13 -4 16 -10z m-85 -70 c0 -5 -9 -10 -21 -10 -11 0 -17 5 -14
10 3 6 13 10 21 10 8 0 14 -4 14 -10z m-2913 -26 c-9 -9 -28 6 -21 18 4 6 10
6 17 -1 6 -6 8 -13 4 -17z m523 16 c0 -5 -4 -10 -10 -10 -5 0 -10 5 -10 10 0
6 5 10 10 10 6 0 10 -4 10 -10z m2310 -35 c0 -8 -9 -15 -20 -15 -13 0 -18 5
-14 15 4 8 12 15 20 15 8 0 14 -7 14 -15z m84 7 c9 -15 -12 -35 -29 -28 -14 5
-15 9 -5 21 14 17 26 19 34 7z m-2964 -32 c0 -5 -4 -10 -10 -10 -5 0 -10 5
-10 10 0 6 5 10 10 10 6 0 10 -4 10 -10z m323 -37 c-21 -32 -28 -22 -12 16 8
18 16 26 20 19 4 -6 0 -22 -8 -35z m92 37 c3 -5 1 -10 -5 -10 -6 0 -21 -11
-34 -25 -13 -14 -27 -25 -31 -25 -5 0 2 11 15 25 16 17 19 25 9 25 -12 0 -11
2 1 10 19 13 37 13 45 0z m202 4 c-3 -3 -12 -4 -19 -1 -8 3 -5 6 6 6 11 1 17
-2 13 -5z m2423 -24 c0 -5 -43 -30 -54 -30 -9 0 3 43 14 50 14 9 40 -4 40 -20z
m-90 0 c0 -5 -7 -10 -16 -10 -8 0 -12 5 -9 10 3 6 10 10 16 10 5 0 9 -4 9 -10z
m-2965 -10 c-3 -5 -10 -10 -16 -10 -5 0 -9 5 -9 10 0 6 7 10 16 10 8 0 12 -4
9 -10z m300 -27 c3 -10 1 -19 -4 -21 -6 -2 -11 -10 -11 -18 0 -8 -5 -14 -11
-14 -6 0 -9 7 -5 15 6 17 -29 22 -39 5 -7 -11 -25 -4 -25 10 0 11 49 37 71 39
9 1 20 -7 24 -16z m-327 -12 c3 -8 -1 -12 -9 -9 -7 2 -15 10 -17 17 -3 8 1 12
9 9 7 -2 15 -10 17 -17z m-28 -27 c0 -8 -4 -12 -10 -9 -5 3 -10 10 -10 16 0 5
5 9 10 9 6 0 10 -7 10 -16z m1295 -24 c-3 -5 -11 -10 -16 -10 -6 0 -7 5 -4 10
3 6 11 10 16 10 6 0 7 -4 4 -10z m-956 -52 c-9 -16 -14 -19 -17 -9 -2 7 2 17
9 22 20 13 21 11 8 -13z m957 -43 c-8 -8 -19 -15 -25 -15 -6 0 -26 -13 -44
-30 -19 -16 -41 -30 -48 -30 -22 0 -79 -38 -79 -53 0 -7 -9 -23 -21 -35 -13
-15 -18 -29 -14 -42 4 -11 2 -20 -4 -20 -5 0 -8 -9 -6 -20 4 -20 -26 -45 -39
-32 -4 3 -4 -2 0 -13 6 -16 5 -18 -7 -9 -22 18 -118 14 -124 -5 -3 -9 -15 -21
-27 -26 -13 -6 -27 -28 -36 -55 -8 -25 -18 -47 -21 -50 -3 -3 -6 -14 -6 -25 0
-24 -38 -33 -60 -15 -11 9 -18 8 -30 -4 -9 -9 -18 -16 -20 -16 -8 0 8 35 19
42 6 4 -6 8 -26 8 -28 0 -36 -4 -32 -14 8 -21 -10 -27 -32 -11 -16 12 -17 14
-3 15 9 0 22 6 28 14 10 11 8 17 -6 25 -17 10 -17 10 1 11 14 0 17 5 12 25 -4
15 -2 25 4 25 6 0 9 3 7 8 -14 22 56 40 79 21 11 -9 14 -9 14 0 0 8 5 9 19 1
25 -13 44 -13 36 0 -3 6 -1 10 4 10 6 0 11 10 11 21 0 12 8 27 17 34 11 9 17
27 18 56 0 24 5 51 10 60 10 16 74 50 105 55 79 14 100 20 133 41 21 13 51 26
68 30 23 4 27 8 17 15 -8 6 6 7 40 3 33 -3 52 -2 52 5 0 5 7 10 16 10 14 0 14
-2 0 -15z m-619 -27 c-3 -7 -5 -2 -5 12 0 14 2 19 5 13 2 -7 2 -19 0 -25z
m-817 -8 c0 -5 -4 -10 -10 -10 -5 0 -10 5 -10 10 0 6 5 10 10 10 6 0 10 -4 10
-10z m3150 -70 c0 -5 7 -10 15 -10 20 0 19 -19 0 -27 -9 -3 -24 2 -34 11 -10
9 -25 16 -34 16 -9 0 -17 5 -17 10 0 6 16 10 35 10 19 0 35 -4 35 -10z m-3200
-46 c0 -8 -4 -12 -10 -9 -5 3 -10 10 -10 16 0 5 5 9 10 9 6 0 10 -7 10 -16z
m1810 -121 c-4 -50 0 -63 16 -63 8 0 12 -4 9 -10 -3 -5 -1 -10 6 -10 8 0 8 -5
-3 -17 -27 -33 -58 -94 -52 -104 3 -6 0 -16 -6 -24 -6 -8 -13 -26 -14 -40 -3
-26 -38 -61 -44 -44 -2 5 -11 9 -21 9 -9 0 -23 6 -31 13 -8 6 -6 2 4 -11 20
-23 14 -44 -6 -24 -7 7 -24 12 -38 12 -14 0 -32 6 -38 12 -10 10 -17 10 -31 1
-15 -10 -22 -9 -31 2 -9 11 -9 15 -1 15 6 0 11 4 11 9 0 14 -49 22 -69 11 -14
-7 -37 -4 -87 11 -75 23 -89 17 -70 -33 8 -22 15 -28 31 -24 11 3 45 9 75 12
51 5 54 4 35 -10 -11 -9 -31 -25 -43 -36 -24 -21 -45 -27 -97 -32 -22 -2 -34
-11 -44 -33 -8 -16 -21 -34 -29 -39 -51 -30 -66 -74 -35 -108 16 -18 16 -19
-5 -25 -13 -3 -22 -13 -22 -24 0 -10 -5 -21 -11 -25 -14 -8 -6 -133 11 -163 7
-14 21 -21 40 -21 20 0 30 -5 30 -15 0 -9 6 -12 15 -9 9 4 22 -6 35 -29 11
-19 30 -37 41 -40 25 -7 81 11 92 30 4 7 13 13 19 13 20 0 151 143 154 168 4
33 44 113 61 119 8 3 18 15 22 26 7 19 9 18 30 -12 12 -17 18 -31 12 -31 -6 0
-11 -12 -11 -26 0 -17 -6 -28 -19 -31 -11 -3 -18 -12 -16 -21 1 -10 -4 -26
-11 -37 -7 -11 -14 -40 -15 -65 -2 -25 -7 -49 -13 -53 -8 -6 -7 -10 2 -14 9
-3 8 -12 -5 -34 -10 -16 -22 -29 -28 -29 -5 0 -21 -14 -34 -30 -19 -25 -31
-30 -64 -30 -44 0 -103 -32 -112 -61 -3 -9 -14 -26 -23 -37 -18 -21 -18 -21
-37 11 -10 18 -31 48 -45 67 -79 103 -169 240 -184 279 -14 36 -17 71 -15 178
3 128 3 133 24 133 12 0 29 6 38 13 17 12 57 109 57 138 0 9 7 19 14 22 8 3
17 22 20 41 4 20 8 52 11 71 3 19 11 35 17 35 18 0 37 -33 38 -65 0 -16 4 -35
8 -41 9 -14 92 -29 92 -17 0 13 53 41 68 36 16 -6 122 36 122 48 0 5 5 9 11 9
14 0 89 63 89 75 0 14 61 54 83 54 14 1 18 -6 17 -26z m-547 -22 c-2 -6 2 -11
7 -11 6 0 10 -5 10 -11 0 -5 -13 -2 -30 7 -21 13 -26 20 -17 26 16 10 33 4 30
-11z m1867 -153 c0 -19 -18 -44 -25 -36 -4 3 0 15 7 27 15 24 18 26 18 9z
m-256 -54 c9 -24 2 -26 -12 -4 -7 11 -8 20 -3 20 5 0 12 -7 15 -16z m-1897
-59 c0 -8 -6 -15 -14 -15 -17 0 -17 20 0 20 6 0 4 5 -5 11 -10 5 -18 15 -18
21 0 6 8 4 18 -5 10 -10 19 -24 19 -32z m23 35 c0 -5 -2 -10 -4 -10 -3 0 -8 5
-11 10 -3 6 -1 10 4 10 6 0 11 -4 11 -10z m1900 -65 c0 -8 -4 -15 -10 -15 -5
0 -7 7 -4 15 4 8 8 15 10 15 2 0 4 -7 4 -15z m-1240 -26 c0 -6 -4 -7 -10 -4
-5 3 -10 11 -10 16 0 6 5 7 10 4 6 -3 10 -11 10 -16z m-27 -10 c23 -12 45 -27
49 -33 11 -16 10 -86 -2 -86 -5 0 -26 14 -46 32 -30 27 -39 30 -55 20 -17 -11
-19 -9 -19 12 0 27 16 76 25 76 3 0 25 -10 48 -21z m-703 -19 c-20 -13 -33
-13 -25 0 3 6 14 10 23 10 15 0 15 -2 2 -10z m1948 -60 c-1 -17 -4 -30 -9 -30
-4 0 -14 -3 -23 -6 -21 -8 -21 19 0 51 20 31 33 24 32 -15z m-54 -75 c-6 -16
-24 -21 -24 -7 0 11 11 22 21 22 5 0 6 -7 3 -15z m-1424 -45 c-35 -24 -54 -31
-30 -11 14 11 30 21 35 21 6 0 3 -5 -5 -10z m1530 -20 c0 -5 -5 -10 -11 -10
-5 0 -7 5 -4 10 3 6 8 10 11 10 2 0 4 -4 4 -10z m-1680 -60 c0 -5 -5 -10 -11
-10 -5 0 -7 5 -4 10 3 6 8 10 11 10 2 0 4 -4 4 -10z m235 -9 c-9 -30 -82 -98
-141 -131 -29 -17 -56 -36 -59 -41 -4 -5 -10 -7 -15 -4 -9 5 7 72 22 92 18 23
117 85 150 93 49 12 50 12 43 -9z m-241 -58 c-2 -21 -5 -48 -5 -60 -1 -13 -5
-23 -10 -23 -10 0 -12 80 -3 104 11 29 22 16 18 -21z m1581 -73 c-9 -15 4 -30
21 -23 13 5 13 8 2 15 -10 8 -10 9 1 6 21 -6 26 -28 7 -28 -21 0 -21 -3 15
-76 18 -36 29 -67 25 -71 -14 -14 -67 60 -76 106 -5 25 -12 54 -15 64 -5 12
-2 17 10 17 9 0 13 -4 10 -10z m333 -120 c-7 -10 -14 -17 -17 -15 -4 4 18 35
25 35 2 0 -1 -9 -8 -20z m-1898 -260 c0 -5 -9 -10 -20 -10 -11 0 -20 5 -20 10
0 6 9 10 20 10 11 0 20 -4 20 -10z m-270 -40 c0 -5 -4 -10 -10 -10 -5 0 -10 5
-10 10 0 6 5 10 10 10 6 0 10 -4 10 -10z m-436 -35 c4 -11 -2 -15 -24 -15 -29
0 -38 9 -23 23 12 12 41 7 47 -8z m-114 -55 c0 -5 -9 -10 -20 -10 -11 0 -20 5
-20 10 0 6 9 10 20 10 11 0 20 -4 20 -10z m740 -44 c0 -11 -19 -15 -25 -6 -3
5 1 10 9 10 9 0 16 -2 16 -4z m-426 -45 c7 -11 -22 -23 -35 -15 -5 3 -9 9 -9
15 0 12 37 12 44 0z m386 -51 c-6 -12 -14 -20 -17 -17 -2 3 1 14 8 26 17 26
24 19 9 -9z"/>
<path d="M670 2330 c0 -5 7 -10 16 -10 8 0 12 5 9 10 -3 6 -10 10 -16 10 -5 0
-9 -4 -9 -10z"/>
<path d="M915 1400 c3 -5 8 -10 11 -10 2 0 4 5 4 10 0 6 -5 10 -11 10 -5 0 -7
-4 -4 -10z"/>
<path d="M1746 2912 c-3 -3 -6 -15 -6 -26 0 -16 2 -18 9 -7 11 17 51 26 51 12
0 -5 -8 -12 -18 -15 -9 -3 -23 -16 -31 -28 -13 -21 -13 -22 2 -9 9 7 23 11 31
8 7 -3 19 0 26 6 10 10 10 7 1 -11 -9 -17 -18 -21 -34 -16 -22 6 -22 6 -2 -10
17 -13 17 -15 4 -16 -12 0 -18 -13 -22 -46 -6 -61 1 -83 29 -90 13 -3 22 -10
19 -14 -7 -11 28 -22 48 -15 8 4 17 15 20 25 3 10 19 21 38 26 l34 8 -35 6
-35 6 42 8 42 8 -1 99 -1 100 -103 -2 c-56 -1 -105 -4 -108 -7z"/>
<path d="M2016 2845 c4 -8 11 -15 16 -15 6 0 5 6 -2 15 -7 8 -14 15 -16 15 -2
0 -1 -7 2 -15z"/>
<path d="M2045 2811 c-3 -6 -15 -11 -26 -11 -10 0 -19 -4 -19 -9 0 -4 11 -6
25 -3 25 4 41 19 32 28 -3 3 -8 1 -12 -5z"/>
<path d="M1992 2758 c-12 -12 -17 -38 -7 -38 10 0 43 39 38 44 -9 9 -18 7 -31
-6z"/>
<path d="M2340 2659 c0 -6 6 -9 14 -6 8 3 17 1 20 -6 2 -7 5 -4 5 6 1 11 -6
17 -19 17 -11 0 -20 -5 -20 -11z"/>
<path d="M1514 2552 c5 -8 66 -4 66 4 0 2 -16 4 -36 4 -19 0 -33 -4 -30 -8z"/>
<path d="M1015 2430 c-3 -5 -1 -10 4 -10 6 0 11 5 11 10 0 6 -2 10 -4 10 -3 0
-8 -4 -11 -10z"/>
<path d="M995 2400 c-7 -12 2 -12 30 0 19 8 19 9 -2 9 -12 1 -25 -3 -28 -9z"/>
<path d="M945 2380 c-3 -5 -2 -10 4 -10 5 0 13 5 16 10 3 6 2 10 -4 10 -5 0
-13 -4 -16 -10z"/>
<path d="M853 2323 c-19 -7 -15 -33 5 -33 22 0 48 17 39 26 -3 4 -13 1 -22 -6
-13 -11 -14 -10 -9 4 7 17 6 17 -13 9z"/>
<path d="M855 2270 c-3 -5 -1 -10 4 -10 6 0 11 5 11 10 0 6 -2 10 -4 10 -3 0
-8 -4 -11 -10z"/>
<path d="M918 2233 c6 -2 18 -2 25 0 6 3 1 5 -13 5 -14 0 -19 -2 -12 -5z"/>
<path d="M898 2103 c6 -3 12 -12 12 -21 0 -11 9 -18 27 -19 25 -1 26 0 10 12
-9 6 -17 16 -17 21 0 6 -10 10 -22 11 -13 0 -17 -1 -10 -4z"/>
<path d="M765 1990 c-3 -5 3 -10 15 -10 12 0 18 5 15 10 -3 6 -10 10 -15 10
-5 0 -12 -4 -15 -10z"/>
<path d="M715 1830 c-20 -22 -28 -67 -15 -90 8 -13 10 -13 16 3 3 10 4 20 1
24 -4 3 0 21 9 41 17 42 14 49 -11 22z"/>
<path d="M3198 791 c-119 -9 -117 -19 9 -44 l73 -14 40 29 c22 16 40 32 40 34
0 5 -54 3 -162 -5z"/>
<path d="M1600 305 c0 -8 -18 -43 -40 -77 -22 -35 -40 -71 -40 -80 0 -24 21
-34 32 -14 5 9 14 14 19 10 14 -8 49 25 49 47 0 10 5 29 11 43 9 19 9 32 -1
56 -13 31 -30 40 -30 15z"/>
</g>
</svg>
